<svg xmlns="http://www.w3.org/2000/svg" viewBox="0 8.84000015258789 67.16000366210938 37.029998779296875" data-asc="0.9052734375" width="67.16000366210938" height="37.029998779296875"><g fill="#000000"><g transform="translate(0, 0)"><path d="M0 27.83Q0 18.92 4.79 13.88Q9.57 8.84 17.14 8.84Q22.09 8.84 26.07 11.21Q30.05 13.57 32.14 17.81Q34.23 22.05 34.23 27.42Q34.23 32.86 32.03 37.16Q29.83 41.46 25.81 43.66Q21.78 45.87 17.11 45.87Q12.06 45.87 8.08 43.43Q4.10 40.99 2.05 36.77Q0 32.54 0 27.83M4.88 27.91Q4.88 34.38 8.36 38.10Q11.84 41.82 17.09 41.82Q22.44 41.82 25.89 38.06Q29.35 34.30 29.35 27.39Q29.35 23.02 27.87 19.76Q26.39 16.50 23.55 14.71Q20.70 12.92 17.16 12.92Q12.13 12.92 8.51 16.37Q4.88 19.82 4.88 27.91ZM40.14 45.26L40.14 9.47L53.56 9.47Q57.67 9.47 60.14 10.56Q62.62 11.65 64.03 13.90Q65.43 16.16 65.43 18.63Q65.43 20.92 64.18 22.95Q62.94 24.98 60.42 26.22Q63.67 27.17 65.42 29.47Q67.16 31.76 67.16 34.89Q67.16 37.40 66.10 39.56Q65.04 41.72 63.48 42.90Q61.91 44.07 59.56 44.67Q57.20 45.26 53.78 45.26L40.14 45.26M44.87 24.51L52.61 24.51Q55.76 24.51 57.13 24.10Q58.94 23.56 59.85 22.31Q60.77 21.07 60.77 19.19Q60.77 17.41 59.91 16.05Q59.06 14.70 57.47 14.20Q55.88 13.70 52.03 13.70L44.87 13.70L44.87 24.51M44.87 41.04L53.78 41.04Q56.08 41.04 57.01 40.87Q58.64 40.58 59.74 39.89Q60.84 39.21 61.55 37.90Q62.26 36.60 62.26 34.89Q62.26 32.89 61.23 31.41Q60.21 29.93 58.39 29.33Q56.57 28.74 53.15 28.74L44.87 28.74L44.87 41.04Z"/></g></g></svg>